<?xml version="1.0" encoding="UTF-8" standalone="no"?><!DOCTYPE svg PUBLIC "-//W3C//DTD SVG 1.1//EN" "http://www.w3.org/Graphics/SVG/1.1/DTD/svg11.dtd"><svg width="100%" height="100%" viewBox="0 0 1920 1920" version="1.1" xmlns="http://www.w3.org/2000/svg" xmlns:xlink="http://www.w3.org/1999/xlink" xml:space="preserve" xmlns:serif="http://www.serif.com/" style="fill-rule:evenodd;clip-rule:evenodd;stroke-linejoin:round;stroke-miterlimit:2;"><rect id="_5th-genLogo" serif:id="5th genLogo" x="0" y="0" width="1920" height="1920" style="fill:none;"/><path d="M1293.37,371.324l-981,857l453,554.754l343.388,-159.754l265.612,159.754l410.858,-965.754l-149.749,-582l-342.109,136Z" style="fill:#fff;"/><path d="M1635.48,1783.08l-1594.17,-932.014l833.243,-750.549l760.927,1682.56Z" style="fill:#8b0000;"/><path d="M672.186,578.922l188.276,90.669l46.5,203.731l-130.291,163.38l-208.97,-0l-130.291,-163.38l46.5,-203.731l188.276,-90.669Z" style="fill:#808080;"/><path d="M987.766,181.688l269.753,1585.54l-297.519,22.543l27.766,-1608.08Z" style="fill:#c8c800;"/><path d="M1785.23,181.688l-1256.6,1710.03l-276.686,-214.183l1533.29,-1495.84Z" style="fill:#008b8b;"/></svg>