<?xml version="1.0" encoding="UTF-8" standalone="no"?><!DOCTYPE svg PUBLIC "-//W3C//DTD SVG 1.1//EN" "http://www.w3.org/Graphics/SVG/1.1/DTD/svg11.dtd"><svg width="100%" height="100%" viewBox="0 0 1920 1280" version="1.1" xmlns="http://www.w3.org/2000/svg" xmlns:xlink="http://www.w3.org/1999/xlink" xml:space="preserve" xmlns:serif="http://www.serif.com/" style="fill-rule:evenodd;clip-rule:evenodd;stroke-linejoin:round;stroke-miterlimit:2;"><rect id="Activision-screenshot" serif:id="Activision screenshot" x="0" y="0" width="1920" height="1280" style="fill:none;"/><clipPath id="_clip1"><rect id="Activision-screenshot1" serif:id="Activision screenshot" x="0" y="0" width="1920" height="1280"/></clipPath><g clip-path="url(#_clip1)"><path id="Floor" d="M1024,1152l0,-128l896,-0l-0,256l-768,0l0,-128l-128,0Zm-1024,128l0,-256l896,-0l0,128l-128,0l0,128l-768,0Zm896,-128l128,0l-0,128l-128,0l0,-128Z" style="fill:#ee8e30;"/><path id="Water" d="M384,1024l-384,0l-0,-128l128,0l-0,-128l128,-0l-0,128l128,0l0,128Zm384,-128l-256,-0l0,-128l256,-0l0,128Zm384,-0l0,-256l256,0l0,256l-256,-0Zm512,-0l0,-256l128,0l0,128l128,-0l-0,128l-256,-0Z" style="fill:#00a8e9;"/><path id="Grass" d="M-0,896l-0,-256l768,0l0,128l-256,-0l0,128l256,0l0,-128l128,-0l0,256l-512,-0l0,-128l-128,-0l0,-128l-128,-0l-0,128l-128,-0Zm1152,0l-128,-0l-0,-128l128,-0l0,128Zm0,0l256,0l0,-256l256,0l0,256l256,0l-0,128l-768,-0l0,-128Zm768,-256l0,128l-128,-0l0,-128l128,0Z" style="fill:#5cb947;"/><path id="Wall" d="M0,640l0,-384l896,0l0,384l-128,0l0,-128l-128,-0l0,-128l-128,0l0,256l-512,0Zm384,-256l-256,0l0,128l256,0l0,-128Zm640,256l0,-384l256,0l0,128l128,0l0,128l128,0l0,-128l-128,0l0,-128l256,0l0,128l128,0l0,-128l128,0l0,384l-128,0l0,-128l-128,0l0,128l-640,0Z"/><rect id="Skyline" x="0" y="128" width="1920" height="128" style="fill:#eb2d2e;"/><rect id="Sky" x="0" y="0" width="1920" height="128" style="fill:#00a8e9;"/><path id="cracks" d="M384,512l-256,-0l0,-128l256,-0l0,128Zm128,128l0,-256l128,-0l0,128l128,-0l0,128l-256,0Zm384,-128l-0,-256l128,0l0,256l-128,-0Zm512,-128l-128,-0l-0,-128l128,0l0,128Zm0,-0l128,-0l0,128l-128,-0l0,-128Zm384,128l0,128l-128,0l0,-128l128,-0Zm0,-256l0,128l-128,-0l0,-128l128,0Z" style="fill:#fbdd2a;"/><path id="Player" d="M896,1152l0,128l-128,0l-0,-128l128,0Zm0,-384l-128,-0l0,-128l128,0l0,-128l128,-0l0,128l128,0l0,128l-128,-0l-0,128l128,0l0,128l-128,0l-0,128l-128,0l0,-384Zm128,384l128,0l0,128l-128,0l-0,-128Z" style="fill:#0ff;"/></g></svg>