<?xml version="1.0" encoding="UTF-8" standalone="no"?><!DOCTYPE svg PUBLIC "-//W3C//DTD SVG 1.1//EN" "http://www.w3.org/Graphics/SVG/1.1/DTD/svg11.dtd"><svg width="100%" height="100%" viewBox="0 0 1920 1920" version="1.1" xmlns="http://www.w3.org/2000/svg" xmlns:xlink="http://www.w3.org/1999/xlink" xml:space="preserve" xmlns:serif="http://www.serif.com/" style="fill-rule:evenodd;clip-rule:evenodd;stroke-linecap:square;stroke-miterlimit:1.5;"><rect id="Activision-Logo" serif:id="Activision Logo" x="0" y="0" width="1920" height="1920" style="fill:none;"/><clipPath id="_clip1"><rect x="0" y="0" width="1920" height="1920"/></clipPath><g clip-path="url(#_clip1)"><g id="Colors"><rect x="0" y="0" width="1920" height="384" style="fill:#eb2d2e;"/><rect x="0" y="384" width="1920" height="384" style="fill:#ee8e30;"/><rect x="0" y="768" width="1920" height="384" style="fill:#fbdd2a;"/><rect x="0" y="1152" width="1920" height="384" style="fill:#5cb947;"/><rect x="0" y="1536" width="1920" height="384" style="fill:#00a8e9;"/></g><g id="Frame"><path id="hroizental" d="M0,384l0,384m0,768l1920,-0m-1920,-1152l1920,0m0,384l-1920,0m0,384l1920,0" style="fill:none;stroke:#000;stroke-width:12.5px;"/><path id="Boundry" d="M1920,0l-1920,0l0,1920l1920,0l0,-1920Zm-1920,768l0,-384m1920,768l0,-384" style="fill:none;stroke:#000;stroke-width:25px;"/></g></g></svg>