<?xml version="1.0" encoding="UTF-8" standalone="no"?><!DOCTYPE svg PUBLIC "-//W3C//DTD SVG 1.1//EN" "http://www.w3.org/Graphics/SVG/1.1/DTD/svg11.dtd"><svg width="100%" height="100%" viewBox="0 0 1920 1920" version="1.1" xmlns="http://www.w3.org/2000/svg" xmlns:xlink="http://www.w3.org/1999/xlink" xml:space="preserve" xmlns:serif="http://www.serif.com/" style="fill-rule:evenodd;clip-rule:evenodd;stroke-linejoin:round;stroke-miterlimit:2;"><rect id="CGA-Logo" serif:id="CGA Logo" x="0" y="-0" width="1920" height="1920" style="fill:none;"/><clipPath id="_clip1"><rect x="0" y="-0" width="1920" height="1920"/></clipPath><g clip-path="url(#_clip1)"><g><rect x="0" y="2" width="240" height="960"/><rect x="0" y="960" width="240" height="960" style="fill:#555;"/><rect x="240" y="-0" width="240" height="960" style="fill:#00a;"/><rect x="240" y="960" width="240" height="960" style="fill:#55f;"/><rect x="480" y="-0" width="240" height="960" style="fill:#0a0;"/><rect x="480" y="960" width="240" height="960" style="fill:#5f5;"/><rect x="720" y="-0" width="240" height="960" style="fill:#0aa;"/><rect x="720" y="960" width="240" height="960" style="fill:#5ff;"/><rect x="960" y="-0" width="240" height="960" style="fill:#a00;"/><rect x="960" y="960" width="240" height="960" style="fill:#f55;"/><rect x="1200" y="-0" width="240" height="960" style="fill:#a0a;"/><rect x="1200" y="960" width="240" height="960" style="fill:#f5f;"/><rect x="1440" y="-0" width="240" height="960" style="fill:#a50;"/><rect x="1440" y="960" width="240" height="960" style="fill:#ff5;"/><rect x="1680" y="-0" width="240" height="960" style="fill:#aaa;"/><rect x="1680" y="960" width="240" height="960" style="fill:#fff;"/></g></g></svg>