<?xml version="1.0" encoding="UTF-8" standalone="no"?>
<svg
   width="100%"
   height="100%"
   viewBox="0 0 195 195"
   version="1.1"
   xml:space="preserve"
   style="fill-rule:evenodd;clip-rule:evenodd;stroke-linejoin:round;stroke-miterlimit:2;"
   id="svg1"
   sodipodi:docname="Introdoction.svg"
   inkscape:version="1.4 (e7c3feb100, 2024-10-09)"
   xmlns:inkscape="http://www.inkscape.org/namespaces/inkscape"
   xmlns:sodipodi="http://sodipodi.sourceforge.net/DTD/sodipodi-0.dtd"
   xmlns="http://www.w3.org/2000/svg"
   xmlns:svg="http://www.w3.org/2000/svg"
   xmlns:serif="http://www.serif.com/"><defs
   id="defs1" /><sodipodi:namedview
   id="namedview1"
   pagecolor="#505050"
   bordercolor="#ffffff"
   borderopacity="1"
   inkscape:showpageshadow="0"
   inkscape:pageopacity="0"
   inkscape:pagecheckerboard="1"
   inkscape:deskcolor="#505050"
   inkscape:zoom="4.1179487"
   inkscape:cx="97.5"
   inkscape:cy="97.5"
   inkscape:window-width="1920"
   inkscape:window-height="1012"
   inkscape:window-x="0"
   inkscape:window-y="0"
   inkscape:window-maximized="1"
   inkscape:current-layer="svg1" />
    <rect
   id="favicon"
   x="0"
   y="0"
   width="195"
   height="195"
   style="fill:none;" />
    <g
   id="favicon1"
   serif:id="favicon">
        <path
   d="M133.061,14.344L133.061,14.168L138.061,14.168L138.061,16.668L137.957,17.394L137.68,18.023L137.259,18.548L136.692,18.97C136.29,19.197 135.125,19.495 133.296,19.497C127.502,19.502 111.579,18.043 97.185,18.38C85.367,18.657 53.278,15.017 33.808,16.378C29.126,16.705 25.217,17.3 22.619,18.385C21.561,18.828 20.725,19.225 20.47,19.938C16.157,31.952 18.102,63.905 17.069,79.813C16.325,91.253 20.09,97.712 21.324,141.318C21.686,154.102 23.129,154.006 22.2,166.825C21.949,170.295 21.831,172.904 21.966,174.912C22.068,176.443 22.279,177.538 22.831,178.353C23.58,179.457 24.884,179.96 26.771,180.609C48.25,187.999 60.215,186.743 63.145,186.424C74.359,185.201 77.737,182.239 94.972,184.445C102.42,185.399 127.783,186.495 138.087,186.039C138.856,186.005 139.677,185.929 140.315,185.86C140.69,180.102 141.307,162.249 140.911,157.599C140.532,153.152 133.353,130.334 139.843,62.188C140.814,51.986 140.504,42.899 140.281,35.187C136.304,34.97 131.821,34.582 126.727,33.967C123.874,33.622 96.184,30.043 71.965,31.276C73.833,31.351 75.806,31.449 77.89,31.571C83.381,31.893 86.598,33.496 88.535,35.746C90.49,38.017 91.219,41.091 91.307,44.789C91.403,48.821 90.761,53.703 91.057,58.93C92.952,92.385 85.794,104.777 88.477,127.045C89.001,131.398 91.625,142.264 91.369,149.994C91.233,154.082 90.185,157.378 88.24,159.111C84.547,162.402 79.985,164.268 75.276,165.511C78.845,165.495 83.239,165.459 88.678,165.405C102.973,165.262 102.949,165.068 116.802,167.977L119.249,168.491L118.221,173.384L115.775,172.871C102.453,170.073 102.475,170.267 88.728,170.404C59.183,170.699 59.233,170.331 56.125,169.508C55.076,169.23 54.326,168.308 54.268,167.224C54.211,166.141 54.858,165.144 55.872,164.756C59.989,163.182 65.471,162.552 71.009,161.382C75.986,160.33 81.036,158.833 84.914,155.378C85.593,154.774 85.892,153.737 86.111,152.512C86.416,150.815 86.442,148.787 86.321,146.632C85.926,139.585 83.951,131.283 83.513,127.643C80.817,105.273 87.969,92.822 86.065,59.212C85.766,53.925 86.405,48.987 86.308,44.908C86.252,42.521 86.008,40.474 84.746,39.008C83.466,37.521 81.226,36.776 77.598,36.563C53.081,35.124 44.54,37.168 41.752,37.848C40.552,38.141 39.319,37.514 38.848,36.372C38.378,35.231 38.811,33.917 39.868,33.279C46.268,29.418 56.455,27.372 67.731,26.531C93.186,24.632 124.27,28.634 127.327,29.003C132.137,29.584 136.383,29.956 140.159,30.17C140.097,26.321 140.154,22.897 140.548,19.94C141.555,12.383 144.578,7.521 152.001,5.647C159.081,3.859 178.177,5.553 185.09,8.652C186.544,9.304 187.564,10.072 188.135,10.803L188.529,11.401L188.831,12.126L188.978,12.959L188.922,13.823C187.997,18.745 186.088,21.913 183.711,24.009C181.521,25.942 178.878,26.967 176.062,27.514C177.717,27.483 179.427,27.586 181.31,27.881L182.18,28.112L183.065,28.655L183.634,29.28L184.019,29.929C184.499,30.904 185.118,33.221 185.918,38.965C186.174,40.8 185.503,42.209 184.932,43.037C185.315,43.623 185.729,44.1 186.113,44.613C187.822,46.899 189.467,49.603 188.043,59.658C183.906,88.885 185.149,88.918 185.249,118.471C185.313,137.159 181.291,166.047 180.974,167.798C179.394,176.537 171.027,182.172 164.349,182.686C161.247,182.925 158.499,182.09 156.66,180.282C155.369,179.014 154.472,177.254 154.264,174.913C152.668,156.996 154.277,156.963 152.084,139.063C150.833,128.854 151.685,116.039 151.282,109.162C149.94,86.242 151.065,48.911 152.465,35.33C150.282,35.413 147.886,35.437 145.234,35.379C145.461,43.142 145.804,52.328 144.82,62.662C138.391,130.167 145.518,152.769 145.893,157.174C146.327,162.27 145.598,182.779 145.228,187.239C145.182,187.792 145.129,188.166 145.093,188.335L144.837,189.045L144.266,189.777L143.252,190.39C142.539,190.666 140.791,190.924 138.308,191.034C127.8,191.5 101.933,190.378 94.337,189.405C77.737,187.28 74.488,190.217 63.687,191.394C60.584,191.733 47.894,193.165 25.144,185.337C21.949,184.238 19.959,183.027 18.692,181.158C17.9,179.989 17.367,178.538 17.109,176.592C16.797,174.248 16.882,171.037 17.213,166.464C18.123,153.897 16.681,153.993 16.326,141.46C15.083,97.525 11.33,91.015 12.079,79.488C13.137,63.215 11.351,30.539 15.764,18.248C16.406,16.46 18.034,14.883 20.691,13.772C23.66,12.531 28.11,11.764 33.46,11.39C53,10.025 85.207,13.659 97.068,13.382C110.563,13.066 127.828,14.025 133.061,14.344ZM153.301,30.281C155.175,24.506 160.421,23.403 166.697,23.199C169.345,23.114 172.172,23.14 174.825,22.674C177.076,22.277 179.205,21.524 180.864,19.821C182.207,18.443 183.22,16.471 183.843,13.704C183.188,13.37 181.751,12.676 180.423,12.3C172.815,10.142 158.848,9.075 153.225,10.495C148.07,11.796 146.203,15.353 145.504,20.6C145.126,23.438 145.062,26.707 145.114,30.37C148.173,30.44 150.878,30.398 153.301,30.281ZM170.139,28.103C167.171,28.201 164.255,28.134 161.85,28.702C160.934,28.918 160.112,29.247 159.445,29.783C162.193,29.468 164.518,29.073 166.617,28.705C167.852,28.488 169.015,28.281 170.139,28.103ZM157.479,35.016C156.053,46.795 154.905,85.488 156.274,108.87C156.672,115.674 155.809,128.354 157.047,138.455C159.25,156.437 157.641,156.47 159.244,174.469C159.33,175.436 159.631,176.192 160.164,176.716C161.061,177.597 162.453,177.817 163.965,177.701C168.814,177.327 174.907,173.254 176.054,166.909C176.365,165.19 180.312,136.833 180.25,118.488C180.148,88.574 178.905,88.541 183.093,58.957C184.324,50.254 182.986,48.763 181.47,46.773C180.938,46.076 180.415,45.33 179.95,44.37L179.597,43.212L179.585,42.518L179.723,41.839L180.044,41.139L180.531,40.502C180.677,40.344 181.046,40.226 180.966,39.655C180.478,36.152 179.932,33.734 179.678,32.7C175.307,32.157 171.924,32.849 167.482,33.629C164.682,34.121 161.493,34.661 157.479,35.016Z"
   id="path1"
   style="fill:#ffffff" />
    </g>
</svg>
