<?xml version="1.0" encoding="UTF-8" standalone="no"?><!DOCTYPE svg PUBLIC "-//W3C//DTD SVG 1.1//EN" "http://www.w3.org/Graphics/SVG/1.1/DTD/svg11.dtd"><svg width="100%" height="100%" viewBox="0 0 1920 1080" version="1.1" xmlns="http://www.w3.org/2000/svg" xmlns:xlink="http://www.w3.org/1999/xlink" xml:space="preserve" xmlns:serif="http://www.serif.com/" style="fill-rule:evenodd;clip-rule:evenodd;stroke-linejoin:round;stroke-miterlimit:2;"><rect id="Library-Screenshot" serif:id="Library Screenshot" x="0" y="0" width="1920" height="1080" style="fill:none;"/><rect id="Background" x="0" y="0" width="1920" height="1080" style="fill:#183759;"/><g><rect x="35" y="60" width="150" height="225" style="fill:#00f;"/><rect x="205" y="60" width="150" height="225" style="fill:#1a00e6;"/><rect x="375" y="60" width="150" height="225" style="fill:#30c;"/><rect x="545" y="60" width="150" height="225" style="fill:#4d00b3;"/><rect x="715" y="60" width="150" height="225" style="fill:#609;"/><rect x="885" y="60" width="150" height="225" style="fill:#800080;"/><rect x="1055" y="60" width="150" height="225" style="fill:#906;"/><rect x="1225" y="60" width="150" height="225" style="fill:#b3004d;"/><rect x="1395" y="60" width="150" height="225" style="fill:#c03;"/><rect x="1565" y="60" width="150" height="225" style="fill:#e6001a;"/><rect x="1735" y="60" width="150" height="225" style="fill:#f00;"/></g><g><rect x="35" y="305" width="150" height="225" style="fill:#0054ff;"/><rect x="205" y="305" width="150" height="225" style="fill:#1a54e6;"/><rect x="375" y="305" width="150" height="225" style="fill:#3354cc;"/><rect x="545" y="305" width="150" height="225" style="fill:#4d54b3;"/><rect x="715" y="305" width="150" height="225" style="fill:#665499;"/><rect x="885" y="305" width="150" height="225" style="fill:#805480;"/><rect x="1055" y="305" width="150" height="225" style="fill:#995466;"/><rect x="1225" y="305" width="150" height="225" style="fill:#b3544d;"/><rect x="1395" y="305" width="150" height="225" style="fill:#cc5433;"/><rect x="1565" y="305" width="150" height="225" style="fill:#e6541a;"/><rect x="1735" y="305" width="150" height="225" style="fill:#ff5400;"/></g><g><rect x="35" y="550" width="150" height="225" style="fill:#00a8ff;"/><rect x="205" y="550" width="150" height="225" style="fill:#1aa8e6;"/><rect x="375" y="550" width="150" height="225" style="fill:#33a8cc;"/><rect x="545" y="550" width="150" height="225" style="fill:#4da8b3;"/><rect x="715" y="550" width="150" height="225" style="fill:#66a899;"/><rect x="885" y="550" width="150" height="225" style="fill:#80a880;"/><rect x="1055" y="550" width="150" height="225" style="fill:#99a866;"/><rect x="1225" y="550" width="150" height="225" style="fill:#b3a84d;"/><rect x="1395" y="550" width="150" height="225" style="fill:#cca833;"/><rect x="1565" y="550" width="150" height="225" style="fill:#e6a81a;"/><rect x="1735" y="550" width="150" height="225" style="fill:#ffa800;"/></g><g><rect x="35" y="795" width="150" height="225" style="fill:#0ff;"/><rect x="205" y="795" width="150" height="225" style="fill:#1affe6;"/><rect x="375" y="795" width="150" height="225" style="fill:#3fc;"/><rect x="545" y="795" width="150" height="225" style="fill:#4dffb3;"/><rect x="715" y="795" width="150" height="225" style="fill:#6f9;"/><rect x="885" y="795" width="150" height="225" style="fill:#80ff80;"/><rect x="1055" y="795" width="150" height="225" style="fill:#9f6;"/><rect x="1225" y="795" width="150" height="225" style="fill:#b3ff4d;"/><rect x="1395" y="795" width="150" height="225" style="fill:#cf3;"/><rect x="1565" y="795" width="150" height="225" style="fill:#e6ff1a;"/><rect x="1735" y="795" width="150" height="225" style="fill:#ff0;"/></g></svg>