<?xml version="1.0" encoding="UTF-8" standalone="no"?>
<!DOCTYPE svg PUBLIC "-//W3C//DTD SVG 1.1//EN" "http://www.w3.org/Graphics/SVG/1.1/DTD/svg11.dtd">
<svg width="100%" height="100%" viewBox="0 0 195 195" version="1.1" xmlns="http://www.w3.org/2000/svg" xmlns:xlink="http://www.w3.org/1999/xlink" xml:space="preserve" xmlns:serif="http://www.serif.com/" style="fill-rule:evenodd;clip-rule:evenodd;stroke-linejoin:round;stroke-miterlimit:2;">
    <rect id="favicon" x="0" y="0" width="195" height="195" style="fill:none;"/>
    <g id="favicon1" serif:id="favicon">
        <path d="M74.989,40.682L75.059,40.553L79.461,42.924L78.276,45.125L77.84,45.726L77.228,46.207L76.567,46.482L75.974,46.578L75.282,46.539L74.547,46.335C74.184,46.197 73.734,45.963 73.228,45.629C70.037,43.522 63.046,36.2 62.327,35.441C54.255,26.934 52.915,26.467 47.445,18.774C35.963,37.71 32.06,43.355 28.561,47.15C30.913,47.111 33.273,47.161 35.62,47.134C39.845,47.086 44.029,46.791 47.993,44.915C48.781,44.542 49.706,44.607 50.434,45.085C51.163,45.563 51.59,46.387 51.561,47.258C51.052,62.487 51.319,114.525 46.75,141.259C46.673,141.71 46.75,142.026 46.816,142.723C47.042,145.113 47.491,150.537 46.45,168.553C46.37,169.953 46.407,171.014 46.555,171.81C46.594,172.016 46.669,172.245 46.73,172.41C47.039,172.34 47.605,172.211 47.868,172.147C48.123,172.084 48.357,172.041 48.562,172.019L49.284,172.015C53.111,172.414 81.621,180.368 106.44,178.673C122.021,177.608 136.238,172.836 140.807,158.951C140.829,158.882 140.851,158.81 140.871,158.736C140.16,158.803 139.17,158.911 138.327,159.057C137.861,159.138 137.375,159.223 136.873,159.305C131.268,160.22 123.943,160.622 118.488,154.147C117.96,153.738 115.66,151.822 113.657,148.099C110.249,141.765 106.279,128.585 107.793,101.476C107.877,99.988 108.029,98.86 108.571,97.79C109.091,96.762 109.968,95.738 111.713,94.614C113.635,93.376 116.886,91.853 122.454,89.517C127.814,87.268 136.705,86.583 142.974,89.056C147.739,90.935 151.083,94.495 151.114,100.154C151.212,118.543 147.76,119.309 151.302,137.106C151.903,140.129 151.567,143.697 151.515,146.549C151.501,147.273 151.6,148.186 151.67,148.731C152.174,148.567 153.023,148.259 153.758,147.85C159.036,144.908 164.289,143.541 175.471,102.253C177.331,95.385 176.617,60.356 171.183,44.053C167.186,32.062 164.836,22.018 147.587,17.741C139.04,15.621 118.434,20.688 115.835,50.768C113.48,78.027 113.951,77.972 113.986,86.174C113.996,88.359 114.284,88.338 113.262,90.236L112.077,92.437L107.675,90.067L108.86,87.865C109.067,87.481 109.038,87.404 109.019,87.106C109.003,86.858 108.988,86.563 108.986,86.196C108.95,77.889 108.468,77.945 110.853,50.337C113.877,15.338 138.845,10.421 148.79,12.888C168.383,17.747 171.386,28.852 175.926,42.472C181.629,59.581 182.249,96.353 180.297,103.56C168.274,147.953 161.867,149.054 156.192,152.217C152.898,154.053 150.727,154.066 149.434,153.522C147.82,152.843 146.766,151.164 146.562,148.572C146.344,145.801 147.088,141.55 146.398,138.082C142.765,119.827 146.215,119.042 146.114,100.18C146.096,96.824 143.966,94.822 141.139,93.707C136.021,91.688 128.764,92.291 124.388,94.127C119.458,96.196 116.469,97.551 114.652,98.671C113.789,99.204 113.273,99.572 113.032,100.048C112.784,100.538 112.824,101.074 112.786,101.755C111.359,127.306 114.848,139.76 118.06,145.73C119.754,148.878 121.301,149.993 121.703,150.311L122.191,150.78C125.542,154.873 129.968,155.09 133.733,154.693C136.823,154.367 139.576,153.659 141.384,153.636C142.402,153.623 143.238,153.799 143.88,154.105L144.773,154.692L145.504,155.573C146.059,156.506 146.362,158.064 145.556,160.514C140.35,176.339 124.539,182.448 106.781,183.661C82.064,185.35 53.731,177.689 49.01,177.019C48.656,177.117 47.54,177.411 46.811,177.45C46.509,177.466 46.207,177.458 45.909,177.423L44.894,177.187L44.2,176.868L43.545,176.41C42.404,175.447 41.17,173.259 41.459,168.264C42.616,148.236 41.903,144.207 41.756,142.297C41.701,141.58 41.711,141.062 41.821,140.417C46.037,115.748 46.077,69.377 46.467,50.817C42.953,51.836 39.333,52.092 35.677,52.134C31.223,52.185 26.716,51.906 22.33,52.642C21.25,52.824 20.177,52.281 19.684,51.302C19.191,50.324 19.392,49.139 20.18,48.378C26.685,42.099 27.296,42.478 45.157,12.897C45.596,12.17 46.375,11.715 47.225,11.69C48.074,11.666 48.878,12.075 49.359,12.776C56.587,23.318 57.169,22.741 65.954,32C66.488,32.563 70.672,36.976 73.895,39.795C74.236,40.094 74.624,40.403 74.989,40.682Z"/>
    </g>
</svg>
