<?xml version="1.0" encoding="UTF-8" standalone="no"?><!DOCTYPE svg PUBLIC "-//W3C//DTD SVG 1.1//EN" "http://www.w3.org/Graphics/SVG/1.1/DTD/svg11.dtd"><svg width="100%" height="100%" viewBox="0 0 1920 1080" version="1.1" xmlns="http://www.w3.org/2000/svg" xmlns:xlink="http://www.w3.org/1999/xlink" xml:space="preserve" xmlns:serif="http://www.serif.com/" style="fill-rule:evenodd;clip-rule:evenodd;stroke-linecap:round;stroke-linejoin:round;stroke-miterlimit:1.5;"><rect id="Pong-Screenshot" serif:id="Pong Screenshot" x="0" y="0" width="1920" height="1080" style="fill:none;"/><rect id="Background" x="0" y="0" width="1920" height="1080"/><g id="Player"><rect x="1836" y="409.985" width="44" height="268" style="fill:#808080;stroke:#fff;stroke-width:1px;"/><rect x="40" y="163.985" width="44" height="268" style="fill:#808080;stroke:#fff;stroke-width:1px;"/></g><path id="Frame" d="M1912.5,1067.5l-1905,-0l0,-938.015l1905,-0l0,938.015Zm-12.5,-925.515l-1880,-0l0,913.015l1880,0l0,-913.015Z" style="fill:#808080;"/><circle id="Ball" cx="396.492" cy="397.492" r="23.492" style="fill:#808080;"/><g id="Scores"><path d="M1349.5,25l97,0l-0,39.5l-97,0l-0,39.5l97,0" style="fill:none;stroke:#808080;stroke-width:10.78px;stroke-linecap:square;stroke-linejoin:miter;"/><path d="M570.5,63l-97,0l-0,-38l97,0l-0,79l-97,0" style="fill:none;stroke:#808080;stroke-width:12.5px;stroke-linecap:square;stroke-linejoin:miter;"/></g><path id="Devider" d="M966.25,1061.25l-12.5,0l-0,-60.917l12.5,-0l0,60.917Zm-0,-103.751l-12.5,-0l-0,-109.336l12.5,0l-0,109.336Zm-0,-152.17l-12.5,0l-0,-109.335l12.5,0l-0,109.335Zm0,-152.169l-12.5,-0l0,-109.335l12.5,0l0,109.335Zm-0,-152.168l-12.5,-0l-0,-109.336l12.5,0l-0,109.336Zm0,-152.171l-12.5,0l0,-109.335l12.5,0l0,109.335Zm0,-152.169l-12.5,-0l0,-60.917l12.5,-0l0,60.917Z" style="fill:#808080;"/></svg>